<svg width="28" height="24" viewBox="0 0 28 24" fill="none" xmlns="http://www.w3.org/2000/svg">
<path d="M12.1706 0.470792C13.9836 -0.53464 16.2899 0.125959 17.3031 1.92279L26.9948 18.743C27.2081 19.245 27.3014 19.6533 27.3281 20.0774C27.3814 21.0683 27.0348 22.0314 26.3549 22.7726C25.675 23.5112 24.7552 23.9472 23.7553 24H4.23862C3.82536 23.9749 3.41209 23.8811 3.02549 23.7358C1.09248 22.9563 0.159307 20.7631 0.945841 18.8619L10.7042 1.9109C11.0375 1.31504 11.5441 0.801091 12.1706 0.470792ZM13.997 16.3635C13.3571 16.3635 12.8238 16.892 12.8238 17.5275C12.8238 18.1603 13.3571 18.6901 13.997 18.6901C14.6369 18.6901 15.1568 18.1603 15.1568 17.5129C15.1568 16.8801 14.6369 16.3635 13.997 16.3635ZM13.997 8.12053C13.3571 8.12053 12.8238 8.63447 12.8238 9.26997V13.0076C12.8238 13.6418 13.3571 14.1716 13.997 14.1716C14.6369 14.1716 15.1568 13.6418 15.1568 13.0076V9.26997C15.1568 8.63447 14.6369 8.12053 13.997 8.12053Z" fill="#F03A17"/>
</svg>
